<mxfile host="app.diagrams.net" modified="2020-11-16T18:24:44.717Z" agent="5.0 (Windows NT 10.0; Win64; x64) AppleWebKit/537.36 (KHTML, like Gecko) Chrome/86.0.4240.193 Safari/537.36" etag="yKkaZqACjw4G5fJxZZ_R" version="13.9.7" type="github">
  <diagram name="Page-1" id="5f0bae14-7c28-e335-631c-24af17079c00">
    <mxGraphModel dx="1550" dy="819" grid="1" gridSize="10" guides="1" tooltips="1" connect="1" arrows="1" fold="1" page="1" pageScale="1" pageWidth="1100" pageHeight="850" background="#ffffff" math="0" shadow="0">
      <root>
        <mxCell id="0" />
        <mxCell id="1" parent="0" />
        <mxCell id="QcD_j5zDJjR_Mdw5U3vG-1" value="Auction" style="html=1;dropTarget=0;" vertex="1" parent="1">
          <mxGeometry x="180" y="140" width="200" height="90" as="geometry" />
        </mxCell>
        <mxCell id="QcD_j5zDJjR_Mdw5U3vG-2" value="" style="shape=module;jettyWidth=8;jettyHeight=4;" vertex="1" parent="QcD_j5zDJjR_Mdw5U3vG-1">
          <mxGeometry x="1" width="20" height="20" relative="1" as="geometry">
            <mxPoint x="-27" y="7" as="offset" />
          </mxGeometry>
        </mxCell>
        <mxCell id="QcD_j5zDJjR_Mdw5U3vG-3" value="items" style="html=1;dropTarget=0;" vertex="1" parent="1">
          <mxGeometry x="530" y="30" width="180" height="90" as="geometry" />
        </mxCell>
        <mxCell id="QcD_j5zDJjR_Mdw5U3vG-4" value="" style="shape=module;jettyWidth=8;jettyHeight=4;" vertex="1" parent="QcD_j5zDJjR_Mdw5U3vG-3">
          <mxGeometry x="1" width="20" height="20" relative="1" as="geometry">
            <mxPoint x="-27" y="7" as="offset" />
          </mxGeometry>
        </mxCell>
        <mxCell id="QcD_j5zDJjR_Mdw5U3vG-5" value="buyers" style="html=1;dropTarget=0;" vertex="1" parent="1">
          <mxGeometry x="530" y="240" width="180" height="90" as="geometry" />
        </mxCell>
        <mxCell id="QcD_j5zDJjR_Mdw5U3vG-6" value="" style="shape=module;jettyWidth=8;jettyHeight=4;" vertex="1" parent="QcD_j5zDJjR_Mdw5U3vG-5">
          <mxGeometry x="1" width="20" height="20" relative="1" as="geometry">
            <mxPoint x="-27" y="7" as="offset" />
          </mxGeometry>
        </mxCell>
        <mxCell id="QcD_j5zDJjR_Mdw5U3vG-7" value="user" style="html=1;dropTarget=0;" vertex="1" parent="1">
          <mxGeometry x="860" y="240" width="180" height="90" as="geometry" />
        </mxCell>
        <mxCell id="QcD_j5zDJjR_Mdw5U3vG-8" value="" style="shape=module;jettyWidth=8;jettyHeight=4;" vertex="1" parent="QcD_j5zDJjR_Mdw5U3vG-7">
          <mxGeometry x="1" width="20" height="20" relative="1" as="geometry">
            <mxPoint x="-27" y="7" as="offset" />
          </mxGeometry>
        </mxCell>
        <mxCell id="QcD_j5zDJjR_Mdw5U3vG-16" value="" style="rounded=0;orthogonalLoop=1;jettySize=auto;html=1;endArrow=none;endFill=0;exitX=0;exitY=0.5;exitDx=0;exitDy=0;" edge="1" target="QcD_j5zDJjR_Mdw5U3vG-18" parent="1" source="QcD_j5zDJjR_Mdw5U3vG-3">
          <mxGeometry relative="1" as="geometry">
            <mxPoint x="420" y="175" as="sourcePoint" />
          </mxGeometry>
        </mxCell>
        <mxCell id="QcD_j5zDJjR_Mdw5U3vG-17" value="" style="rounded=0;orthogonalLoop=1;jettySize=auto;html=1;endArrow=halfCircle;endFill=0;entryX=0.5;entryY=0.5;entryDx=0;entryDy=0;endSize=6;strokeWidth=1;exitX=1;exitY=0.5;exitDx=0;exitDy=0;" edge="1" target="QcD_j5zDJjR_Mdw5U3vG-18" parent="1" source="QcD_j5zDJjR_Mdw5U3vG-1">
          <mxGeometry relative="1" as="geometry">
            <mxPoint x="480" y="175" as="sourcePoint" />
          </mxGeometry>
        </mxCell>
        <mxCell id="QcD_j5zDJjR_Mdw5U3vG-18" value="" style="ellipse;whiteSpace=wrap;html=1;fontFamily=Helvetica;fontSize=12;fontColor=#000000;align=center;strokeColor=#000000;fillColor=#ffffff;points=[];aspect=fixed;resizable=0;" vertex="1" parent="1">
          <mxGeometry x="440" y="130" width="10" height="10" as="geometry" />
        </mxCell>
        <mxCell id="QcD_j5zDJjR_Mdw5U3vG-19" value="item information" style="text;html=1;strokeColor=none;fillColor=none;align=center;verticalAlign=middle;whiteSpace=wrap;rounded=0;" vertex="1" parent="1">
          <mxGeometry x="390" y="80" width="70" height="40" as="geometry" />
        </mxCell>
        <mxCell id="QcD_j5zDJjR_Mdw5U3vG-20" value="sellers" style="html=1;dropTarget=0;" vertex="1" parent="1">
          <mxGeometry x="850" y="30" width="180" height="90" as="geometry" />
        </mxCell>
        <mxCell id="QcD_j5zDJjR_Mdw5U3vG-21" value="" style="shape=module;jettyWidth=8;jettyHeight=4;" vertex="1" parent="QcD_j5zDJjR_Mdw5U3vG-20">
          <mxGeometry x="1" width="20" height="20" relative="1" as="geometry">
            <mxPoint x="-27" y="7" as="offset" />
          </mxGeometry>
        </mxCell>
        <mxCell id="QcD_j5zDJjR_Mdw5U3vG-25" value="post items" style="text;html=1;strokeColor=none;fillColor=none;align=center;verticalAlign=middle;whiteSpace=wrap;rounded=0;" vertex="1" parent="1">
          <mxGeometry x="750" y="20" width="70" height="40" as="geometry" />
        </mxCell>
        <mxCell id="QcD_j5zDJjR_Mdw5U3vG-32" value="" style="rounded=0;orthogonalLoop=1;jettySize=auto;html=1;endArrow=none;endFill=0;exitX=0;exitY=0.5;exitDx=0;exitDy=0;" edge="1" target="QcD_j5zDJjR_Mdw5U3vG-34" parent="1" source="QcD_j5zDJjR_Mdw5U3vG-20">
          <mxGeometry relative="1" as="geometry">
            <mxPoint x="770" y="75" as="sourcePoint" />
          </mxGeometry>
        </mxCell>
        <mxCell id="QcD_j5zDJjR_Mdw5U3vG-33" value="" style="rounded=0;orthogonalLoop=1;jettySize=auto;html=1;endArrow=halfCircle;endFill=0;entryX=0.5;entryY=0.5;entryDx=0;entryDy=0;endSize=6;strokeWidth=1;exitX=1;exitY=0.5;exitDx=0;exitDy=0;" edge="1" target="QcD_j5zDJjR_Mdw5U3vG-34" parent="1" source="QcD_j5zDJjR_Mdw5U3vG-3">
          <mxGeometry relative="1" as="geometry">
            <mxPoint x="810" y="75" as="sourcePoint" />
          </mxGeometry>
        </mxCell>
        <mxCell id="QcD_j5zDJjR_Mdw5U3vG-34" value="" style="ellipse;whiteSpace=wrap;html=1;fontFamily=Helvetica;fontSize=12;fontColor=#000000;align=center;strokeColor=#000000;fillColor=#ffffff;points=[];aspect=fixed;resizable=0;" vertex="1" parent="1">
          <mxGeometry x="750" y="70" width="10" height="10" as="geometry" />
        </mxCell>
        <mxCell id="QcD_j5zDJjR_Mdw5U3vG-35" value="" style="rounded=0;orthogonalLoop=1;jettySize=auto;html=1;endArrow=none;endFill=0;exitX=0;exitY=0.5;exitDx=0;exitDy=0;" edge="1" target="QcD_j5zDJjR_Mdw5U3vG-37" parent="1" source="QcD_j5zDJjR_Mdw5U3vG-5">
          <mxGeometry relative="1" as="geometry">
            <mxPoint x="330" y="305" as="sourcePoint" />
          </mxGeometry>
        </mxCell>
        <mxCell id="QcD_j5zDJjR_Mdw5U3vG-36" value="" style="rounded=0;orthogonalLoop=1;jettySize=auto;html=1;endArrow=halfCircle;endFill=0;entryX=0.5;entryY=0.5;entryDx=0;entryDy=0;endSize=6;strokeWidth=1;exitX=1;exitY=0.5;exitDx=0;exitDy=0;" edge="1" target="QcD_j5zDJjR_Mdw5U3vG-37" parent="1" source="QcD_j5zDJjR_Mdw5U3vG-1">
          <mxGeometry relative="1" as="geometry">
            <mxPoint x="370" y="305" as="sourcePoint" />
          </mxGeometry>
        </mxCell>
        <mxCell id="QcD_j5zDJjR_Mdw5U3vG-37" value="" style="ellipse;whiteSpace=wrap;html=1;fontFamily=Helvetica;fontSize=12;fontColor=#000000;align=center;strokeColor=#000000;fillColor=#ffffff;points=[];aspect=fixed;resizable=0;" vertex="1" parent="1">
          <mxGeometry x="440" y="230" width="10" height="10" as="geometry" />
        </mxCell>
        <mxCell id="QcD_j5zDJjR_Mdw5U3vG-38" value="buyers information" style="text;html=1;strokeColor=none;fillColor=none;align=center;verticalAlign=middle;whiteSpace=wrap;rounded=0;" vertex="1" parent="1">
          <mxGeometry x="440" y="180" width="70" height="40" as="geometry" />
        </mxCell>
        <mxCell id="QcD_j5zDJjR_Mdw5U3vG-39" value="" style="rounded=0;orthogonalLoop=1;jettySize=auto;html=1;endArrow=none;endFill=0;exitX=0;exitY=0.5;exitDx=0;exitDy=0;" edge="1" target="QcD_j5zDJjR_Mdw5U3vG-41" parent="1" source="QcD_j5zDJjR_Mdw5U3vG-7">
          <mxGeometry relative="1" as="geometry">
            <mxPoint x="750" y="285" as="sourcePoint" />
          </mxGeometry>
        </mxCell>
        <mxCell id="QcD_j5zDJjR_Mdw5U3vG-40" value="" style="rounded=0;orthogonalLoop=1;jettySize=auto;html=1;endArrow=halfCircle;endFill=0;entryX=0.5;entryY=0.5;entryDx=0;entryDy=0;endSize=6;strokeWidth=1;exitX=1;exitY=0.5;exitDx=0;exitDy=0;" edge="1" target="QcD_j5zDJjR_Mdw5U3vG-41" parent="1" source="QcD_j5zDJjR_Mdw5U3vG-5">
          <mxGeometry relative="1" as="geometry">
            <mxPoint x="790" y="285" as="sourcePoint" />
          </mxGeometry>
        </mxCell>
        <mxCell id="QcD_j5zDJjR_Mdw5U3vG-41" value="" style="ellipse;whiteSpace=wrap;html=1;fontFamily=Helvetica;fontSize=12;fontColor=#000000;align=center;strokeColor=#000000;fillColor=#ffffff;points=[];aspect=fixed;resizable=0;" vertex="1" parent="1">
          <mxGeometry x="765" y="280" width="10" height="10" as="geometry" />
        </mxCell>
        <mxCell id="QcD_j5zDJjR_Mdw5U3vG-42" value="" style="rounded=0;orthogonalLoop=1;jettySize=auto;html=1;endArrow=none;endFill=0;exitX=0.5;exitY=0;exitDx=0;exitDy=0;" edge="1" target="QcD_j5zDJjR_Mdw5U3vG-44" parent="1" source="QcD_j5zDJjR_Mdw5U3vG-7">
          <mxGeometry relative="1" as="geometry">
            <mxPoint x="930" y="200" as="sourcePoint" />
          </mxGeometry>
        </mxCell>
        <mxCell id="QcD_j5zDJjR_Mdw5U3vG-43" value="" style="rounded=0;orthogonalLoop=1;jettySize=auto;html=1;endArrow=halfCircle;endFill=0;entryX=0.5;entryY=0.5;entryDx=0;entryDy=0;endSize=6;strokeWidth=1;" edge="1" target="QcD_j5zDJjR_Mdw5U3vG-44" parent="1">
          <mxGeometry relative="1" as="geometry">
            <mxPoint x="950" y="120" as="sourcePoint" />
          </mxGeometry>
        </mxCell>
        <mxCell id="QcD_j5zDJjR_Mdw5U3vG-44" value="" style="ellipse;whiteSpace=wrap;html=1;fontFamily=Helvetica;fontSize=12;fontColor=#000000;align=center;strokeColor=#000000;fillColor=#ffffff;points=[];aspect=fixed;resizable=0;" vertex="1" parent="1">
          <mxGeometry x="945" y="195" width="10" height="10" as="geometry" />
        </mxCell>
        <mxCell id="QcD_j5zDJjR_Mdw5U3vG-46" value="username&amp;amp;password" style="text;html=1;strokeColor=none;fillColor=none;align=center;verticalAlign=middle;whiteSpace=wrap;rounded=0;" vertex="1" parent="1">
          <mxGeometry x="750" y="230" width="70" height="40" as="geometry" />
        </mxCell>
        <mxCell id="QcD_j5zDJjR_Mdw5U3vG-47" value="username&amp;amp;password" style="text;html=1;strokeColor=none;fillColor=none;align=center;verticalAlign=middle;whiteSpace=wrap;rounded=0;" vertex="1" parent="1">
          <mxGeometry x="850" y="150" width="70" height="40" as="geometry" />
        </mxCell>
        <mxCell id="QcD_j5zDJjR_Mdw5U3vG-48" value="payment system" style="html=1;dropTarget=0;" vertex="1" parent="1">
          <mxGeometry x="120" y="440" width="180" height="90" as="geometry" />
        </mxCell>
        <mxCell id="QcD_j5zDJjR_Mdw5U3vG-49" value="" style="shape=module;jettyWidth=8;jettyHeight=4;" vertex="1" parent="QcD_j5zDJjR_Mdw5U3vG-48">
          <mxGeometry x="1" width="20" height="20" relative="1" as="geometry">
            <mxPoint x="-27" y="7" as="offset" />
          </mxGeometry>
        </mxCell>
        <mxCell id="QcD_j5zDJjR_Mdw5U3vG-50" value="&lt;span style=&quot;font-size: 11px&quot;&gt;postage calcuation system&lt;/span&gt;" style="html=1;dropTarget=0;" vertex="1" parent="1">
          <mxGeometry x="380" y="440" width="180" height="90" as="geometry" />
        </mxCell>
        <mxCell id="QcD_j5zDJjR_Mdw5U3vG-51" value="" style="shape=module;jettyWidth=8;jettyHeight=4;" vertex="1" parent="QcD_j5zDJjR_Mdw5U3vG-50">
          <mxGeometry x="1" width="20" height="20" relative="1" as="geometry">
            <mxPoint x="-27" y="7" as="offset" />
          </mxGeometry>
        </mxCell>
        <mxCell id="QcD_j5zDJjR_Mdw5U3vG-52" value="" style="rounded=0;orthogonalLoop=1;jettySize=auto;html=1;endArrow=none;endFill=0;exitX=0.5;exitY=1;exitDx=0;exitDy=0;" edge="1" target="QcD_j5zDJjR_Mdw5U3vG-54" parent="1" source="QcD_j5zDJjR_Mdw5U3vG-1">
          <mxGeometry relative="1" as="geometry">
            <mxPoint x="340" y="325" as="sourcePoint" />
          </mxGeometry>
        </mxCell>
        <mxCell id="QcD_j5zDJjR_Mdw5U3vG-53" value="" style="rounded=0;orthogonalLoop=1;jettySize=auto;html=1;endArrow=halfCircle;endFill=0;entryX=0.5;entryY=0.5;entryDx=0;entryDy=0;endSize=6;strokeWidth=1;exitX=0.5;exitY=0;exitDx=0;exitDy=0;" edge="1" target="QcD_j5zDJjR_Mdw5U3vG-54" parent="1" source="QcD_j5zDJjR_Mdw5U3vG-50">
          <mxGeometry relative="1" as="geometry">
            <mxPoint x="380" y="325" as="sourcePoint" />
          </mxGeometry>
        </mxCell>
        <mxCell id="QcD_j5zDJjR_Mdw5U3vG-54" value="" style="ellipse;whiteSpace=wrap;html=1;fontFamily=Helvetica;fontSize=12;fontColor=#000000;align=center;strokeColor=#000000;fillColor=#ffffff;points=[];aspect=fixed;resizable=0;" vertex="1" parent="1">
          <mxGeometry x="355" y="320" width="10" height="10" as="geometry" />
        </mxCell>
        <mxCell id="QcD_j5zDJjR_Mdw5U3vG-55" value="auction&lt;br&gt;information" style="text;html=1;strokeColor=none;fillColor=none;align=center;verticalAlign=middle;whiteSpace=wrap;rounded=0;" vertex="1" parent="1">
          <mxGeometry x="365" y="280" width="70" height="40" as="geometry" />
        </mxCell>
        <mxCell id="QcD_j5zDJjR_Mdw5U3vG-56" value="" style="rounded=0;orthogonalLoop=1;jettySize=auto;html=1;endArrow=none;endFill=0;exitX=0;exitY=0.5;exitDx=0;exitDy=0;" edge="1" target="QcD_j5zDJjR_Mdw5U3vG-58" parent="1" source="QcD_j5zDJjR_Mdw5U3vG-50">
          <mxGeometry relative="1" as="geometry">
            <mxPoint x="310" y="485" as="sourcePoint" />
          </mxGeometry>
        </mxCell>
        <mxCell id="QcD_j5zDJjR_Mdw5U3vG-57" value="" style="rounded=0;orthogonalLoop=1;jettySize=auto;html=1;endArrow=halfCircle;endFill=0;entryX=0.5;entryY=0.5;entryDx=0;entryDy=0;endSize=6;strokeWidth=1;exitX=1;exitY=0.5;exitDx=0;exitDy=0;" edge="1" target="QcD_j5zDJjR_Mdw5U3vG-58" parent="1" source="QcD_j5zDJjR_Mdw5U3vG-48">
          <mxGeometry relative="1" as="geometry">
            <mxPoint x="350" y="485" as="sourcePoint" />
          </mxGeometry>
        </mxCell>
        <mxCell id="QcD_j5zDJjR_Mdw5U3vG-58" value="" style="ellipse;whiteSpace=wrap;html=1;fontFamily=Helvetica;fontSize=12;fontColor=#000000;align=center;strokeColor=#000000;fillColor=#ffffff;points=[];aspect=fixed;resizable=0;" vertex="1" parent="1">
          <mxGeometry x="325" y="480" width="10" height="10" as="geometry" />
        </mxCell>
        <mxCell id="QcD_j5zDJjR_Mdw5U3vG-59" value="" style="rounded=0;orthogonalLoop=1;jettySize=auto;html=1;endArrow=none;endFill=0;exitX=0.5;exitY=1;exitDx=0;exitDy=0;" edge="1" target="QcD_j5zDJjR_Mdw5U3vG-61" parent="1" source="QcD_j5zDJjR_Mdw5U3vG-1">
          <mxGeometry relative="1" as="geometry">
            <mxPoint x="220" y="350" as="sourcePoint" />
          </mxGeometry>
        </mxCell>
        <mxCell id="QcD_j5zDJjR_Mdw5U3vG-60" value="" style="rounded=0;orthogonalLoop=1;jettySize=auto;html=1;endArrow=halfCircle;endFill=0;entryX=0.5;entryY=0.5;entryDx=0;entryDy=0;endSize=6;strokeWidth=1;exitX=0.5;exitY=0;exitDx=0;exitDy=0;" edge="1" target="QcD_j5zDJjR_Mdw5U3vG-61" parent="1" source="QcD_j5zDJjR_Mdw5U3vG-48">
          <mxGeometry relative="1" as="geometry">
            <mxPoint x="260" y="355" as="sourcePoint" />
          </mxGeometry>
        </mxCell>
        <mxCell id="QcD_j5zDJjR_Mdw5U3vG-61" value="" style="ellipse;whiteSpace=wrap;html=1;fontFamily=Helvetica;fontSize=12;fontColor=#000000;align=center;strokeColor=#000000;fillColor=#ffffff;points=[];aspect=fixed;resizable=0;" vertex="1" parent="1">
          <mxGeometry x="235" y="350" width="10" height="10" as="geometry" />
        </mxCell>
        <mxCell id="QcD_j5zDJjR_Mdw5U3vG-62" value="auction information" style="text;html=1;strokeColor=none;fillColor=none;align=center;verticalAlign=middle;whiteSpace=wrap;rounded=0;" vertex="1" parent="1">
          <mxGeometry x="175" y="290" width="70" height="40" as="geometry" />
        </mxCell>
        <mxCell id="QcD_j5zDJjR_Mdw5U3vG-63" value="postage information" style="text;html=1;strokeColor=none;fillColor=none;align=center;verticalAlign=middle;whiteSpace=wrap;rounded=0;" vertex="1" parent="1">
          <mxGeometry x="310" y="440" width="70" height="40" as="geometry" />
        </mxCell>
        <mxCell id="QcD_j5zDJjR_Mdw5U3vG-64" value="" style="rounded=0;orthogonalLoop=1;jettySize=auto;html=1;endArrow=none;endFill=0;exitX=0.5;exitY=1;exitDx=0;exitDy=0;" edge="1" target="QcD_j5zDJjR_Mdw5U3vG-66" parent="1" source="QcD_j5zDJjR_Mdw5U3vG-5">
          <mxGeometry relative="1" as="geometry">
            <mxPoint x="620" y="365" as="sourcePoint" />
          </mxGeometry>
        </mxCell>
        <mxCell id="QcD_j5zDJjR_Mdw5U3vG-65" value="" style="rounded=0;orthogonalLoop=1;jettySize=auto;html=1;endArrow=halfCircle;endFill=0;entryX=0.5;entryY=0.5;entryDx=0;entryDy=0;endSize=6;strokeWidth=1;exitX=0.5;exitY=1;exitDx=0;exitDy=0;" edge="1" target="QcD_j5zDJjR_Mdw5U3vG-66" parent="1" source="QcD_j5zDJjR_Mdw5U3vG-48">
          <mxGeometry relative="1" as="geometry">
            <mxPoint x="190" y="600" as="sourcePoint" />
            <Array as="points">
              <mxPoint x="210" y="640" />
              <mxPoint x="330" y="640" />
              <mxPoint x="550" y="640" />
              <mxPoint x="620" y="640" />
            </Array>
          </mxGeometry>
        </mxCell>
        <mxCell id="QcD_j5zDJjR_Mdw5U3vG-66" value="" style="ellipse;whiteSpace=wrap;html=1;fontFamily=Helvetica;fontSize=12;fontColor=#000000;align=center;strokeColor=#000000;fillColor=#ffffff;points=[];aspect=fixed;resizable=0;" vertex="1" parent="1">
          <mxGeometry x="615" y="360" width="10" height="10" as="geometry" />
        </mxCell>
        <mxCell id="QcD_j5zDJjR_Mdw5U3vG-67" value="account information" style="text;html=1;strokeColor=none;fillColor=none;align=center;verticalAlign=middle;whiteSpace=wrap;rounded=0;" vertex="1" parent="1">
          <mxGeometry x="640" y="345" width="70" height="40" as="geometry" />
        </mxCell>
        <mxCell id="QcD_j5zDJjR_Mdw5U3vG-68" value="return system" style="html=1;dropTarget=0;" vertex="1" parent="1">
          <mxGeometry x="710" y="440" width="180" height="90" as="geometry" />
        </mxCell>
        <mxCell id="QcD_j5zDJjR_Mdw5U3vG-69" value="" style="shape=module;jettyWidth=8;jettyHeight=4;" vertex="1" parent="QcD_j5zDJjR_Mdw5U3vG-68">
          <mxGeometry x="1" width="20" height="20" relative="1" as="geometry">
            <mxPoint x="-27" y="7" as="offset" />
          </mxGeometry>
        </mxCell>
        <mxCell id="QcD_j5zDJjR_Mdw5U3vG-70" value="" style="rounded=0;orthogonalLoop=1;jettySize=auto;html=1;endArrow=none;endFill=0;exitX=0;exitY=0.5;exitDx=0;exitDy=0;" edge="1" target="QcD_j5zDJjR_Mdw5U3vG-72" parent="1" source="QcD_j5zDJjR_Mdw5U3vG-1">
          <mxGeometry relative="1" as="geometry">
            <mxPoint x="80" y="250" as="sourcePoint" />
          </mxGeometry>
        </mxCell>
        <mxCell id="QcD_j5zDJjR_Mdw5U3vG-71" value="" style="rounded=0;orthogonalLoop=1;jettySize=auto;html=1;endArrow=halfCircle;endFill=0;entryX=0.5;entryY=0.5;entryDx=0;entryDy=0;endSize=6;strokeWidth=1;exitX=0.5;exitY=1;exitDx=0;exitDy=0;" edge="1" target="QcD_j5zDJjR_Mdw5U3vG-72" parent="1" source="QcD_j5zDJjR_Mdw5U3vG-68">
          <mxGeometry relative="1" as="geometry">
            <mxPoint x="840" y="550" as="sourcePoint" />
            <Array as="points">
              <mxPoint x="800" y="680" />
              <mxPoint x="40" y="680" />
              <mxPoint x="40" y="185" />
            </Array>
          </mxGeometry>
        </mxCell>
        <mxCell id="QcD_j5zDJjR_Mdw5U3vG-72" value="" style="ellipse;whiteSpace=wrap;html=1;fontFamily=Helvetica;fontSize=12;fontColor=#000000;align=center;strokeColor=#000000;fillColor=#ffffff;points=[];aspect=fixed;resizable=0;" vertex="1" parent="1">
          <mxGeometry x="95" y="180" width="10" height="10" as="geometry" />
        </mxCell>
        <mxCell id="QcD_j5zDJjR_Mdw5U3vG-74" value="auction information" style="text;html=1;strokeColor=none;fillColor=none;align=center;verticalAlign=middle;whiteSpace=wrap;rounded=0;" vertex="1" parent="1">
          <mxGeometry x="105" y="140" width="70" height="40" as="geometry" />
        </mxCell>
        <mxCell id="QcD_j5zDJjR_Mdw5U3vG-75" value="buyer reflection" style="text;html=1;strokeColor=none;fillColor=none;align=center;verticalAlign=middle;whiteSpace=wrap;rounded=0;" vertex="1" parent="1">
          <mxGeometry x="720" y="330" width="70" height="40" as="geometry" />
        </mxCell>
        <mxCell id="QcD_j5zDJjR_Mdw5U3vG-80" value="" style="rounded=0;orthogonalLoop=1;jettySize=auto;html=1;endArrow=none;endFill=0;" edge="1" target="QcD_j5zDJjR_Mdw5U3vG-82" parent="1">
          <mxGeometry relative="1" as="geometry">
            <mxPoint x="710" y="315" as="sourcePoint" />
          </mxGeometry>
        </mxCell>
        <mxCell id="QcD_j5zDJjR_Mdw5U3vG-81" value="" style="rounded=0;orthogonalLoop=1;jettySize=auto;html=1;endArrow=halfCircle;endFill=0;endSize=6;strokeWidth=1;exitX=0.5;exitY=0;exitDx=0;exitDy=0;" edge="1" parent="1" source="QcD_j5zDJjR_Mdw5U3vG-68">
          <mxGeometry relative="1" as="geometry">
            <mxPoint x="810" y="315" as="sourcePoint" />
            <mxPoint x="745" y="314.5" as="targetPoint" />
            <Array as="points">
              <mxPoint x="800" y="315" />
            </Array>
          </mxGeometry>
        </mxCell>
        <mxCell id="QcD_j5zDJjR_Mdw5U3vG-82" value="" style="ellipse;whiteSpace=wrap;html=1;fontFamily=Helvetica;fontSize=12;fontColor=#000000;align=center;strokeColor=#000000;fillColor=#ffffff;points=[];aspect=fixed;resizable=0;" vertex="1" parent="1">
          <mxGeometry x="740" y="310" width="10" height="10" as="geometry" />
        </mxCell>
        <mxCell id="QcD_j5zDJjR_Mdw5U3vG-84" value="" style="rounded=0;orthogonalLoop=1;jettySize=auto;html=1;endArrow=none;endFill=0;" edge="1" target="QcD_j5zDJjR_Mdw5U3vG-86" parent="1">
          <mxGeometry relative="1" as="geometry">
            <mxPoint x="890" y="485" as="sourcePoint" />
          </mxGeometry>
        </mxCell>
        <mxCell id="QcD_j5zDJjR_Mdw5U3vG-85" value="" style="rounded=0;orthogonalLoop=1;jettySize=auto;html=1;endArrow=halfCircle;endFill=0;entryX=0.5;entryY=0.5;entryDx=0;entryDy=0;endSize=6;strokeWidth=1;exitX=1;exitY=0.5;exitDx=0;exitDy=0;" edge="1" target="QcD_j5zDJjR_Mdw5U3vG-86" parent="1" source="QcD_j5zDJjR_Mdw5U3vG-20">
          <mxGeometry relative="1" as="geometry">
            <mxPoint x="1060" y="70" as="sourcePoint" />
            <Array as="points">
              <mxPoint x="1070" y="75" />
              <mxPoint x="1070" y="485" />
            </Array>
          </mxGeometry>
        </mxCell>
        <mxCell id="QcD_j5zDJjR_Mdw5U3vG-86" value="" style="ellipse;whiteSpace=wrap;html=1;fontFamily=Helvetica;fontSize=12;fontColor=#000000;align=center;strokeColor=#000000;fillColor=#ffffff;points=[];aspect=fixed;resizable=0;" vertex="1" parent="1">
          <mxGeometry x="905" y="480" width="10" height="10" as="geometry" />
        </mxCell>
        <mxCell id="QcD_j5zDJjR_Mdw5U3vG-87" value="return items" style="text;html=1;strokeColor=none;fillColor=none;align=center;verticalAlign=middle;whiteSpace=wrap;rounded=0;" vertex="1" parent="1">
          <mxGeometry x="920" y="440" width="70" height="40" as="geometry" />
        </mxCell>
        <mxCell id="QcD_j5zDJjR_Mdw5U3vG-88" value="" style="rounded=0;orthogonalLoop=1;jettySize=auto;html=1;endArrow=none;endFill=0;" edge="1" target="QcD_j5zDJjR_Mdw5U3vG-90" parent="1">
          <mxGeometry relative="1" as="geometry">
            <mxPoint x="251" y="530" as="sourcePoint" />
          </mxGeometry>
        </mxCell>
        <mxCell id="QcD_j5zDJjR_Mdw5U3vG-89" value="" style="rounded=0;orthogonalLoop=1;jettySize=auto;html=1;endArrow=halfCircle;endFill=0;entryX=0.5;entryY=0.5;entryDx=0;entryDy=0;endSize=6;strokeWidth=1;" edge="1" target="QcD_j5zDJjR_Mdw5U3vG-90" parent="1">
          <mxGeometry relative="1" as="geometry">
            <mxPoint x="760" y="530" as="sourcePoint" />
            <Array as="points">
              <mxPoint x="760" y="610" />
              <mxPoint x="250" y="610" />
            </Array>
          </mxGeometry>
        </mxCell>
        <mxCell id="QcD_j5zDJjR_Mdw5U3vG-90" value="" style="ellipse;whiteSpace=wrap;html=1;fontFamily=Helvetica;fontSize=12;fontColor=#000000;align=center;strokeColor=#000000;fillColor=#ffffff;points=[];aspect=fixed;resizable=0;" vertex="1" parent="1">
          <mxGeometry x="245" y="570" width="10" height="10" as="geometry" />
        </mxCell>
        <mxCell id="QcD_j5zDJjR_Mdw5U3vG-91" value="postage information" style="text;html=1;strokeColor=none;fillColor=none;align=center;verticalAlign=middle;whiteSpace=wrap;rounded=0;" vertex="1" parent="1">
          <mxGeometry x="265" y="555" width="70" height="40" as="geometry" />
        </mxCell>
      </root>
    </mxGraphModel>
  </diagram>
</mxfile>
